# xmcd
#
# Track frame offsets:
#	150
#	12369
#	29237
#	42913
#	60514
#	81490
#	97328
#	114895
#	133841
#	148162
#	167546
#
# Disc length: 2482 seconds
#
# Revision: 1
# Processed by: cddbd v1.5.2PL0 Copyright (c) Steve Scherf et al.
# Submitted via: audiograbber 1.83.01
#
DISCID=9d09b00b
DTITLE=Somersault - The Solitude and Me
DYEAR=2010
DGENRE=New Age
TTITLE0=Fade Away
TTITLE1=The Solitude and Me
TTITLE2=Love Lies
TTITLE3=Daydreamer
TTITLE4=Silent Sea
TTITLE5=Safer Land
TTITLE6=Out Of The Snow
TTITLE7=In My Vision
TTITLE8=Lucky Man
TTITLE9=Rise And Shine
TTITLE10=The End
EXTD=
EXTT0=
EXTT1=
EXTT2=
EXTT3=
EXTT4=
EXTT5=
EXTT6=
EXTT7=
EXTT8=
EXTT9=
EXTT10=
PLAYORDER=
